<?xml version="1.0" encoding="UTF-8"?>
<svg id="Layer_2" data-name="Layer 2" xmlns="http://www.w3.org/2000/svg" viewBox="0 0 184.43 31.77">
  <defs>
    <style>
      .cls-1 {
        fill: #1a1818;
      }
    </style>
  </defs>
  <g id="Layer_1-2" data-name="Layer 1">
    <g>
      <path class="cls-1" d="M25.26.84h6.27v30.15h-6.3l-.24-4.37c-.88,1.55-2.08,2.79-3.59,3.74-1.51.94-3.29,1.42-5.34,1.42-2.21,0-4.29-.42-6.24-1.25-1.95-.83-3.66-2-5.14-3.48-1.48-1.49-2.63-3.2-3.45-5.14-.82-1.94-1.24-4.02-1.24-6.25s.4-4.18,1.21-6.08c.8-1.9,1.92-3.56,3.35-4.99s3.08-2.55,4.96-3.36c1.88-.81,3.89-1.22,6.04-1.22s4.12.5,5.8,1.49c1.68,1,3.07,2.27,4.17,3.81l-.27-4.46ZM15.92,25.71c1.77,0,3.32-.44,4.64-1.31s2.36-2.05,3.09-3.54,1.1-3.13,1.1-4.94-.37-3.49-1.12-4.97c-.74-1.49-1.77-2.67-3.09-3.54-1.32-.87-2.86-1.31-4.63-1.31s-3.35.44-4.79,1.33c-1.45.88-2.59,2.07-3.44,3.56-.84,1.49-1.27,3.13-1.27,4.94s.44,3.48,1.31,4.96c.87,1.48,2.03,2.65,3.47,3.53,1.44.87,3.01,1.31,4.72,1.31Z"/>
      <path class="cls-1" d="M37.56,30.99V.84h6.27v3.2c1.04-1.25,2.33-2.23,3.86-2.95s3.18-1.09,4.94-1.09c1.12,0,2.24.15,3.35.45l-2.5,6.33c-.78-.3-1.57-.45-2.35-.45-1.33,0-2.54.33-3.65.98-1.11.65-1.99,1.53-2.65,2.64-.66,1.11-1,2.33-1,3.68v17.36h-6.27Z"/>
      <path class="cls-1" d="M71.26,31.77c-2.77,0-5.3-.71-7.58-2.14s-4.1-3.34-5.46-5.74c-1.36-2.4-2.04-5.06-2.04-7.97,0-2.21.39-4.28,1.18-6.19s1.86-3.61,3.24-5.06c1.38-1.46,2.98-2.6,4.81-3.42s3.78-1.24,5.85-1.24c2.77,0,5.3.71,7.58,2.14,2.28,1.43,4.1,3.35,5.46,5.76,1.36,2.41,2.03,5.08,2.03,8.02,0,2.19-.39,4.24-1.18,6.15-.78,1.91-1.86,3.59-3.24,5.05-1.38,1.46-2.97,2.6-4.79,3.42-1.82.82-3.77,1.24-5.86,1.24ZM71.26,25.5c1.67,0,3.17-.44,4.49-1.33,1.33-.88,2.38-2.05,3.15-3.51.77-1.46,1.16-3.04,1.16-4.75s-.4-3.36-1.19-4.82c-.79-1.47-1.85-2.64-3.18-3.51-1.33-.87-2.8-1.31-4.43-1.31s-3.14.44-4.48,1.33c-1.34.88-2.39,2.06-3.17,3.53-.77,1.47-1.16,3.07-1.16,4.79s.4,3.41,1.21,4.85c.8,1.45,1.87,2.6,3.21,3.45s2.8,1.28,4.39,1.28Z"/>
      <path class="cls-1" d="M107.08,30.99h-8.05L88.03.78h6.69l8.32,22.97L111.39.78h6.66l-10.97,30.21Z"/>
      <path class="cls-1" d="M145,.84h6.27v30.15h-6.3l-.24-4.37c-.88,1.55-2.08,2.79-3.59,3.74-1.51.94-3.29,1.42-5.34,1.42-2.21,0-4.29-.42-6.24-1.25-1.95-.83-3.66-2-5.14-3.48-1.48-1.49-2.63-3.2-3.45-5.14-.82-1.94-1.24-4.02-1.24-6.25s.4-4.18,1.21-6.08c.8-1.9,1.92-3.56,3.35-4.99s3.08-2.55,4.96-3.36c1.88-.81,3.89-1.22,6.04-1.22s4.12.5,5.8,1.49c1.68,1,3.07,2.27,4.17,3.81l-.27-4.46ZM135.66,25.71c1.77,0,3.32-.44,4.64-1.31s2.36-2.05,3.09-3.54,1.1-3.13,1.1-4.94-.37-3.49-1.12-4.97c-.74-1.49-1.77-2.67-3.09-3.54-1.32-.87-2.86-1.31-4.63-1.31s-3.35.44-4.79,1.33c-1.45.88-2.59,2.07-3.44,3.56-.84,1.49-1.27,3.13-1.27,4.94s.44,3.48,1.31,4.96c.87,1.48,2.03,2.65,3.47,3.53,1.44.87,3.01,1.31,4.72,1.31Z"/>
      <path class="cls-1" d="M184.43,12.09v18.9h-6.27V13.63c0-1.35-.33-2.57-.98-3.68-.65-1.1-1.53-1.98-2.62-2.64-1.1-.65-2.33-.98-3.69-.98s-2.54.33-3.65.98c-1.11.65-1.99,1.53-2.65,2.64-.66,1.11-1,2.33-1,3.68v17.36h-6.27V.84h6.27v3.2c1.04-1.25,2.33-2.23,3.86-2.95s3.18-1.09,4.94-1.09c2.23,0,4.26.54,6.09,1.63,1.83,1.09,3.28,2.54,4.36,4.37,1.08,1.83,1.61,3.86,1.61,6.09Z"/>
    </g>
  </g>
</svg>