<?xml version="1.0" encoding="UTF-8"?>
<svg id="Layer_2" data-name="Layer 2" xmlns="http://www.w3.org/2000/svg" viewBox="0 0 184.43 113.42">
  <defs>
    <style>
      .cls-1 {
        fill: #fcf8f4;
      }
    </style>
  </defs>
  <g id="Layer_1-2" data-name="Layer 1">
    <g>
      <g>
        <path class="cls-1" d="M25.26,82.49h6.27v30.15h-6.3l-.24-4.37c-.88,1.55-2.08,2.79-3.59,3.74-1.51.94-3.29,1.42-5.34,1.42-2.21,0-4.29-.42-6.24-1.25-1.95-.83-3.66-2-5.14-3.48-1.48-1.49-2.63-3.2-3.45-5.14-.82-1.94-1.24-4.02-1.24-6.25s.4-4.18,1.21-6.08c.8-1.9,1.92-3.56,3.35-4.99s3.08-2.55,4.96-3.36c1.88-.81,3.89-1.22,6.04-1.22s4.12.5,5.8,1.49c1.68,1,3.07,2.27,4.17,3.81l-.27-4.46ZM15.92,107.36c1.77,0,3.32-.44,4.64-1.31s2.36-2.05,3.09-3.54,1.1-3.13,1.1-4.94-.37-3.49-1.12-4.97c-.74-1.49-1.77-2.67-3.09-3.54-1.32-.87-2.86-1.31-4.63-1.31s-3.35.44-4.79,1.33c-1.45.88-2.59,2.07-3.44,3.56-.84,1.49-1.27,3.13-1.27,4.94s.44,3.48,1.31,4.96c.87,1.48,2.03,2.65,3.47,3.53,1.44.87,3.01,1.31,4.72,1.31Z"/>
        <path class="cls-1" d="M37.56,112.63v-30.15h6.27v3.2c1.04-1.25,2.33-2.23,3.86-2.95s3.18-1.09,4.94-1.09c1.12,0,2.24.15,3.35.45l-2.5,6.33c-.78-.3-1.57-.45-2.35-.45-1.33,0-2.54.33-3.65.98-1.11.65-1.99,1.53-2.65,2.64-.66,1.11-1,2.33-1,3.68v17.36h-6.27Z"/>
        <path class="cls-1" d="M71.26,113.42c-2.77,0-5.3-.71-7.58-2.14s-4.1-3.34-5.46-5.74c-1.36-2.4-2.04-5.06-2.04-7.97,0-2.21.39-4.28,1.18-6.19s1.86-3.61,3.24-5.06c1.38-1.46,2.98-2.6,4.81-3.42s3.78-1.24,5.85-1.24c2.77,0,5.3.71,7.58,2.14,2.28,1.43,4.1,3.35,5.46,5.76,1.36,2.41,2.03,5.08,2.03,8.02,0,2.19-.39,4.24-1.18,6.15-.78,1.91-1.86,3.59-3.24,5.05-1.38,1.46-2.97,2.6-4.79,3.42-1.82.82-3.77,1.24-5.86,1.24ZM71.26,107.15c1.67,0,3.17-.44,4.49-1.33,1.33-.88,2.38-2.05,3.15-3.51.77-1.46,1.16-3.04,1.16-4.75s-.4-3.36-1.19-4.82c-.79-1.47-1.85-2.64-3.18-3.51-1.33-.87-2.8-1.31-4.43-1.31s-3.14.44-4.48,1.33c-1.34.88-2.39,2.06-3.17,3.53-.77,1.47-1.16,3.07-1.16,4.79s.4,3.41,1.21,4.85c.8,1.45,1.87,2.6,3.21,3.45s2.8,1.28,4.39,1.28Z"/>
        <path class="cls-1" d="M107.08,112.63h-8.05l-11-30.21h6.69l8.32,22.97,8.35-22.97h6.66l-10.97,30.21Z"/>
        <path class="cls-1" d="M145,82.49h6.27v30.15h-6.3l-.24-4.37c-.88,1.55-2.08,2.79-3.59,3.74-1.51.94-3.29,1.42-5.34,1.42-2.21,0-4.29-.42-6.24-1.25-1.95-.83-3.66-2-5.14-3.48-1.48-1.49-2.63-3.2-3.45-5.14-.82-1.94-1.24-4.02-1.24-6.25s.4-4.18,1.21-6.08c.8-1.9,1.92-3.56,3.35-4.99s3.08-2.55,4.96-3.36c1.88-.81,3.89-1.22,6.04-1.22s4.12.5,5.8,1.49c1.68,1,3.07,2.27,4.17,3.81l-.27-4.46ZM135.66,107.36c1.77,0,3.32-.44,4.64-1.31s2.36-2.05,3.09-3.54,1.1-3.13,1.1-4.94-.37-3.49-1.12-4.97c-.74-1.49-1.77-2.67-3.09-3.54-1.32-.87-2.86-1.31-4.63-1.31s-3.35.44-4.79,1.33c-1.45.88-2.59,2.07-3.44,3.56-.84,1.49-1.27,3.13-1.27,4.94s.44,3.48,1.31,4.96c.87,1.48,2.03,2.65,3.47,3.53,1.44.87,3.01,1.31,4.72,1.31Z"/>
        <path class="cls-1" d="M184.43,93.73v18.9h-6.27v-17.36c0-1.35-.33-2.57-.98-3.68-.65-1.1-1.53-1.98-2.62-2.64-1.1-.65-2.33-.98-3.69-.98s-2.54.33-3.65.98c-1.11.65-1.99,1.53-2.65,2.64-.66,1.11-1,2.33-1,3.68v17.36h-6.27v-30.15h6.27v3.2c1.04-1.25,2.33-2.23,3.86-2.95s3.18-1.09,4.94-1.09c2.23,0,4.26.54,6.09,1.63,1.83,1.09,3.28,2.54,4.36,4.37,1.08,1.83,1.61,3.86,1.61,6.09Z"/>
      </g>
      <path class="cls-1" d="M124.38,36.21V0h-58.21v43.34c.56-.44,1.1-.85,1.63-1.2,3.32-2.12,12.99-6.76,11.98.53l3.43-3.42h4.08c-1.35,2.95-18.46,21.25-4.08,14.61,3.99-2.19,7.47-3.57,11.81-3.45,1.98.03,3.79.36,5.69,1.08,11.63,4.15,19.25,3.46,23.67.89v-14.76c-.75-.23-1.57-.36-2.47-.35v-1.05c.88-.1,1.7-.1,2.47-.01ZM120.89,1.94c.31,0,.6.19.71.48,1.07,2.86.39,5.39.12,11.2-.04.95.5,2.09.61,3.09.1.95-1.35,1.14-1.53.2-1.04-5.41-.78-9.46-4.72-14.31-.17-.21-.35-.43-.55-.66h5.36ZM68.37,2.71c0-.43.34-.77.77-.77h.67c.51,0,.88.49.74.97-.29,1.03-.56,1.9-.81,2.55-.29.75-.35,1.75-1.37,1.91V2.71ZM68.45,23.56c-.06-2.36-.42-4.94-.08-6.97.57-3.37,3.37-9.34,4.92-14.12.1-.32.4-.53.73-.53h4.69c.5,0,.87.47.75.95-.6,2.36-1.35,4.82-2.4,7.45-1.76,4.42-4.26,9.66-7.22,13.65-.44.59-1.37.3-1.39-.43ZM78.84,29.36c-1.47,2.06-5.2,1.1-7.8,1.15-.56.01-.96-.52-.76-1.03.68-1.68,2.77-4.63,3.2-5.43,3.6-6.75,7.13-14.11,9.29-21.56.1-.32.4-.55.74-.55h2.38c.5,0,.87.46.75.94-1.47,6.1-2.56,13.14-3.56,16.4-.66,2.14-3.1,8.45-4.24,10.08ZM102.61,27.93c-.08.98.08,1.86-.73,2.51-.13.1-.3.14-.46.14h-9.31c-.5,0-.86-.46-.75-.94.95-4.1,4.56-15.16,7.32-15.16,2.61,0,4.1,11.21,3.93,13.45ZM111.76,30.57l-4.3-.05c-.37-.01-.68-.27-.75-.63-1.17-6.14-.85-22.44-10.59-18.49-5.27,2.13-6.37,15.88-9.44,18.59-1.01.89-2.6.64-4.02.58-.53-.03-.88-.55-.69-1.04,1.36-3.42,3.06-6.69,4.1-10.26.66-2.28,1.99-10.39,3.64-16.76.08-.34.39-.57.75-.57h11.33c.26,0,.51.13.65.35,2.13,3.25,2.26,6.01,4.16,12.09,1.64,5.23,4.49,10.01,5.92,15.23.14.49-.25.96-.76.96ZM121.26,30.52l-4.29-.03c-.3,0-.57-.19-.69-.47-1.91-4.43-4.38-8.85-5.92-13.41-1.88-5.6-1.79-9.27-4.09-13.54-.27-.51.09-1.13.68-1.13h4.21c.23,0,.45.11.6.29,2.65,3.23,4.73,6.09,5.06,7.37.6,2.32.46,5.48,1.03,7.92.43,1.9,4.34,9.74,4.19,12.28-.03.41-.37.73-.78.72Z"/>
      <path class="cls-1" d="M73.73,50.04c2.32-3.21,3.96-4.76,4.21-7.9,0-.96-.5-1.6-1.45-1.45-.29.05-.36.06-.61.13-3.96.98-7.57,5.24-9.71,9.06v5.37c2.19-.21,6.31-3.37,7.55-5.21Z"/>
      <path class="cls-1" d="M89.39,53.86c-3.54.69-4.37,1.32-8.56,2.9-4.23,1.9-8.96,2.33-8.29-3.03-1.45,1.31-3.94,2.97-6.37,3.91v.57h58.21v-4.03c-3.32,1.9-7.33,2.81-11.16,2.84-7.87.13-15.77-3.75-23.83-3.16Z"/>
      <path class="cls-1" d="M124.38,36.21v1.42c5.95,1.85,7,10.67,0,14.75v1.81c2.18-1.25,4.08-2.92,5.42-5.06,3.38-5.72.84-12.22-5.42-12.92Z"/>
      <path class="cls-1" d="M65.5,51.16c.2-.42.43-.84.67-1.28v-6.54c-3.38,2.75-6.85,7.23-6.93,10.91.18,4.59,3.5,4.71,6.93,3.39v-2.39c-1.36.13-1.98-.89-.67-4.09Z"/>
    </g>
  </g>
</svg>