<svg xmlns="http://www.w3.org/2000/svg" width="81.074" height="72.552" viewBox="0 0 81.074 72.552">
  <path id="_290143_cash_money_payment_wallet_icon" data-name="290143_cash_money_payment_wallet_icon" d="M80.074,65.88h0a8.594,8.594,0,0,1-8.6,8.6H9.6A8.594,8.594,0,0,1,1,65.88V16.029A6.876,6.876,0,0,1,7.876,9.153H42.55L56.472,4.109a1.7,1.7,0,0,1,2.18,1.012l1.466,4.031h6.2A6.876,6.876,0,0,1,73.2,16.029v3.438h0a6.876,6.876,0,0,1,6.876,6.876ZM7.876,12.591h0a3.438,3.438,0,0,0,0,6.876h6.247c.022-.009.036-.028.058-.036l18.878-6.84Zm49.985.311L56.036,7.875h0L52.508,9.153h.005l-9.479,3.438h-.017L24.041,19.467H60.247Zm11.9,3.127a3.439,3.439,0,0,0-3.438-3.438H61.366l2.5,6.876H69.76ZM73.2,22.9H7.876a6.8,6.8,0,0,1-3.438-.954V65.88A5.158,5.158,0,0,0,9.6,71.037H71.479a5.157,5.157,0,0,0,5.157-5.157V53.847H69.76a6.876,6.876,0,1,1,0-13.752h6.876V26.343A3.439,3.439,0,0,0,73.2,22.9Zm3.438,27.5V43.533H69.76a3.438,3.438,0,1,0,0,6.876ZM69.76,45.252H73.2V48.69H69.76Z" transform="translate(0 -2.922)" fill="#282829" stroke="#fcf8f3" stroke-width="2" fill-rule="evenodd"/>
</svg>
