<svg xmlns="http://www.w3.org/2000/svg" width="89.653" height="76.18" viewBox="0 0 89.653 76.18">
  <g id="ConciergeServices-dark" transform="translate(-1.75 -4.495)">
    <path id="Path_470" data-name="Path 470" d="M88.308,40.2H4.845A3.1,3.1,0,0,1,1.75,37.1V35.385A3.1,3.1,0,0,1,4.845,32.29H88.308A3.1,3.1,0,0,1,91.4,35.385V37.1A3.1,3.1,0,0,1,88.308,40.2ZM4.845,33.825a1.562,1.562,0,0,0-1.56,1.56V37.1a1.562,1.562,0,0,0,1.56,1.56H88.308a1.562,1.562,0,0,0,1.56-1.56V35.385a1.562,1.562,0,0,0-1.56-1.56Z" transform="translate(0 40.476)" fill="#282829"/>
    <path id="Path_471" data-name="Path 471" d="M39.212,19.563H17.474a3.414,3.414,0,1,1,0-6.828H39.212a3.414,3.414,0,0,1,0,6.828ZM17.474,14.258a1.879,1.879,0,1,0,0,3.758H39.212a1.879,1.879,0,0,0,0-3.758Z" transform="translate(17.926 11.999)" fill="#282829"/>
    <path id="Path_472" data-name="Path 472" d="M23.16,18.425a5.465,5.465,0,1,1,5.465-5.465A5.469,5.469,0,0,1,23.16,18.425Zm0-9.407a3.93,3.93,0,1,0,3.93,3.93A3.934,3.934,0,0,0,23.16,9.018Z" transform="translate(23.219 4.369)" fill="#282829"/>
    <path id="Path_473" data-name="Path 473" d="M28.436,13.227a.762.762,0,0,1-.54-.221.771.771,0,0,1,0-1.081L35.1,4.716A.764.764,0,0,1,36.186,5.8l-7.209,7.209A.762.762,0,0,1,28.436,13.227Z" transform="translate(37.753)" fill="#282829"/>
    <path id="Path_474" data-name="Path 474" d="M40.7,10.9H30.511a.768.768,0,0,1,0-1.535H40.7a.768.768,0,0,1,0,1.535Z" transform="translate(40.775 7.092)" fill="#282829"/>
    <path id="Path_475" data-name="Path 475" d="M35.645,20.129a.762.762,0,0,1-.54-.221L27.9,12.687a.764.764,0,0,1,1.081-1.081l7.209,7.221a.771.771,0,0,1,0,1.081A.762.762,0,0,1,35.645,20.129Z" transform="translate(37.753 10.033)" fill="#282829"/>
    <path id="Path_476" data-name="Path 476" d="M6.241,10.9a.765.765,0,0,1-.761-.761.776.776,0,0,1,.761-.774H16.435a.765.765,0,0,1,.761.761.776.776,0,0,1-.761.774Z" transform="translate(5.432 7.092)" fill="#282829"/>
    <path id="Path_477" data-name="Path 477" d="M8.863,18.2a.748.748,0,0,1-.663-.381.763.763,0,0,1,.282-1.044l8.855-5.072a.765.765,0,1,1,.761,1.326L9.244,18.1A.706.706,0,0,1,8.863,18.2Z" transform="translate(9.245 10.352)" fill="#282829"/>
    <path id="Path_478" data-name="Path 478" d="M17.718,11.747a.836.836,0,0,1-.381-.1L8.483,6.577A.765.765,0,1,1,9.244,5.25L18.1,10.322a.763.763,0,0,1,.282,1.044A.777.777,0,0,1,17.718,11.747Z" transform="translate(9.245 0.952)" fill="#282829"/>
    <path id="Path_479" data-name="Path 479" d="M84.9,54.565H5.3a2.862,2.862,0,0,1,0-5.723H6.579a38.9,38.9,0,0,1,77.175,0H84.9a2.862,2.862,0,0,1,0,5.723ZM5.3,50.39a1.326,1.326,0,1,0,0,2.653H84.9a1.326,1.326,0,0,0,0-2.653H82.378L82.3,49.7a37.363,37.363,0,0,0-74.276,0l-.074.688Z" transform="translate(1.005 15.13)" fill="#282829"/>
    <path id="Path_480" data-name="Path 480" d="M8.23,36.682a.713.713,0,0,1-.344-.086.775.775,0,0,1-.344-1.032,39.278,39.278,0,0,1,17.3-17.243.775.775,0,0,1,1.032.344.764.764,0,0,1-.344,1.032A37.691,37.691,0,0,0,8.917,36.265.759.759,0,0,1,8.23,36.682Z" transform="translate(8.319 20.02)" fill="#282829"/>
  </g>
</svg>
