<svg xmlns="http://www.w3.org/2000/svg" width="30.684" height="30.685" viewBox="0 0 30.684 30.685">
  <g id="_1161953_instagram_icon" data-name="1161953_instagram_icon" transform="translate(-3.4 -4.8)">
    <path id="Path_151" data-name="Path 151" d="M23.319,16.7a7.918,7.918,0,1,0,7.918,7.918A7.934,7.934,0,0,0,23.319,16.7Zm0,12.991a5.073,5.073,0,1,1,5.073-5.073A5.1,5.1,0,0,1,23.319,29.691Z" transform="translate(-4.576 -4.538)"/>
    <circle id="Ellipse_6" data-name="Ellipse 6" cx="1.794" cy="1.794" r="1.794" transform="translate(25.176 10.182)"/>
    <path id="Path_152" data-name="Path 152" d="M31.61,7.336a8.81,8.81,0,0,0-6.5-2.536H12.37C6.988,4.8,3.4,8.388,3.4,13.77V26.452A8.9,8.9,0,0,0,6,33.072a9.028,9.028,0,0,0,6.434,2.413h12.62a9.135,9.135,0,0,0,6.5-2.413,8.857,8.857,0,0,0,2.536-6.558V13.77A8.868,8.868,0,0,0,31.61,7.336Zm-.247,19.178a6.045,6.045,0,0,1-1.794,4.516,6.394,6.394,0,0,1-4.516,1.608H12.432A6.4,6.4,0,0,1,7.916,31.03a6.218,6.218,0,0,1-1.67-4.578V13.77a6.167,6.167,0,0,1,1.67-4.516,6.291,6.291,0,0,1,4.516-1.608H25.176a6.167,6.167,0,0,1,4.516,1.67,6.384,6.384,0,0,1,1.67,4.454V26.514Z"/>
  </g>
</svg>
