<svg xmlns="http://www.w3.org/2000/svg" width="67.35" height="76.18" viewBox="0 0 67.35 76.18">
  <g id="LifetimeWarranty-dark" transform="translate(-5.62 -3.725)">
    <path id="Path_463" data-name="Path 463" d="M39.3,79.905l-.164-.035C38.8,79.788,5.62,71.743,5.62,43.578V11.056h.726A76.9,76.9,0,0,0,38.985,3.866l.3-.141.3.141a77.11,77.11,0,0,0,32.639,7.191q.738,0,.738,6.148V43.566c0,28.177-33.177,36.222-33.517,36.292l-.164.035ZM7.084,12.52V43.578c0,26,29.711,34.185,32.217,34.829,2.518-.644,32.217-8.842,32.217-34.829V12.52A78.587,78.587,0,0,1,39.3,5.341,78.628,78.628,0,0,1,7.084,12.52Z" transform="translate(0 0)" fill="#282829"/>
    <path id="Path_464" data-name="Path 464" d="M35.482,68.023l-.164-.035c-.269-.059-26.853-6.511-26.853-29.1V12.805h.726A61.313,61.313,0,0,0,35.166,7.09l.3-.141.3.141A61.313,61.313,0,0,0,61.75,12.805h.726V38.886c0,22.59-26.584,29.031-26.853,29.1l-.164.035ZM9.929,14.269V38.9c0,20.506,23.34,27.052,25.553,27.626C37.7,65.95,61.036,59.4,61.036,38.9V14.269a62.848,62.848,0,0,1-25.553-5.7A62.658,62.658,0,0,1,9.929,14.269Z" transform="translate(3.818 4.328)" fill="#282829"/>
    <path id="Path_465" data-name="Path 465" d="M19.276,28.763A8.291,8.291,0,1,1,24.57,14.089c.07.047,15.962,11.582,15.962,11.582l-.855,1.183C27.849,18.27,24.64,16.1,23.75,15.318l-.105-.094a6.83,6.83,0,1,0,.117,10.411,6.375,6.375,0,0,0,1.124-1.253l1.722-2.155,1.148.913-1.686,2.108a8.312,8.312,0,0,1-6.781,3.513Z" transform="translate(7.201 11.348)" fill="#282829"/>
    <path id="Path_466" data-name="Path 466" d="M30.334,28.763a9.209,9.209,0,0,1-5.258-1.921l.867-1.183a7.774,7.774,0,0,0,4.392,1.64,6.828,6.828,0,1,0-5.61-10.727L23,18.715,21.855,17.8l1.686-2.108a8.293,8.293,0,1,1,6.781,13.07Z" transform="translate(21.791 11.348)" fill="#282829"/>
    <path id="Path_467" data-name="Path 467" d="M31.359,34.6H17.446a.722.722,0,0,1-.726-.726V22.241a.722.722,0,0,1,.726-.726H31.359a.722.722,0,0,1,.726.726V33.87A.722.722,0,0,1,31.359,34.6ZM18.172,33.132H30.621V22.967H18.172Z" transform="translate(14.899 23.878)" fill="#282829"/>
    <path id="Path_468" data-name="Path 468" d="M27.16,26.623H25.7V22.806a3.086,3.086,0,1,0-6.172,0v3.818H18.06V22.806a4.55,4.55,0,1,1,9.1,0Z" transform="translate(16.697 19.495)" fill="#282829"/>
    <path id="Path_469" data-name="Path 469" d="M20.805,26.516A1.405,1.405,0,1,0,19.4,25.11,1.405,1.405,0,0,0,20.805,26.516Z" transform="translate(18.495 26.817)" fill="#282829"/>
  </g>
</svg>
