<svg xmlns="http://www.w3.org/2000/svg" xmlns:xlink="http://www.w3.org/1999/xlink" width="46" height="32" viewBox="0 0 46 32">
  <defs>
    <clipPath id="clip-path">
      <rect id="Rectangle_286" data-name="Rectangle 286" width="46" height="32" transform="translate(1145 591)" fill="#fff" stroke="#707070" stroke-width="1"/>
    </clipPath>
    <clipPath id="clip-path-2">
      <path id="Path_429" data-name="Path 429" d="M5.031,10.781A2.163,2.163,0,0,1,7.188,8.625H48.875a2.163,2.163,0,0,1,2.156,2.156V35.219a2.163,2.163,0,0,1-2.156,2.156H7.188a2.163,2.163,0,0,1-2.156-2.156Z"/>
    </clipPath>
    <clipPath id="clip-path-3">
      <path id="Path_430" data-name="Path 430" d="M19.873,32.991V31.625a.8.8,0,0,0-.827-.863.813.813,0,0,0-.755.4.787.787,0,0,0-.719-.4.764.764,0,0,0-.647.323v-.252H16.5v2.156h.431V31.769a.52.52,0,0,1,.539-.575c.323,0,.467.216.467.575v1.222h.431V31.769a.52.52,0,0,1,.539-.575c.323,0,.5.216.5.575v1.222Zm6.972-2.156h-.791v-.647h-.431v.647h-.467v.4h.467v1.006c0,.5.18.791.719.791a.994.994,0,0,0,.575-.18l-.144-.4a.937.937,0,0,1-.4.108c-.216,0-.323-.144-.323-.359V31.194h.791Zm3.989-.036a.61.61,0,0,0-.575.323V30.87h-.431v2.156h.431V31.8c0-.359.18-.575.467-.575a.432.432,0,0,1,.288.072l.144-.4A.434.434,0,0,0,30.834,30.8Zm-6.038.216a1.617,1.617,0,0,0-.863-.216c-.539,0-.862.252-.862.683,0,.359.252.575.719.611l.216.036c.252.036.4.108.4.252,0,.18-.18.287-.5.287a1.311,1.311,0,0,1-.719-.216l-.216.323a1.74,1.74,0,0,0,.934.288c.611,0,.97-.288.97-.683,0-.359-.252-.575-.719-.647l-.216-.036c-.216-.036-.4-.072-.4-.216s.18-.252.431-.252a1.561,1.561,0,0,1,.683.18Zm6.5.9a1.056,1.056,0,0,0,1.114,1.114,1.068,1.068,0,0,0,.755-.252l-.216-.323a1.086,1.086,0,0,1-.575.18.723.723,0,0,1,0-1.438,1.086,1.086,0,0,1,.575.18l.216-.323a1.068,1.068,0,0,0-.755-.252A1.056,1.056,0,0,0,31.3,31.913ZM28.283,30.8a1.04,1.04,0,0,0-1.042,1.114,1.029,1.029,0,0,0,1.078,1.114,1.255,1.255,0,0,0,.863-.288l-.216-.323a.976.976,0,0,1-.611.216.622.622,0,0,1-.647-.539h1.617v-.18A1.04,1.04,0,0,0,28.283,30.8Zm0,.4a.56.56,0,0,1,.575.539h-1.15A.56.56,0,0,1,28.283,31.194Zm-5.786.719V30.834h-.431v.252a.89.89,0,0,0-.683-.323,1.04,1.04,0,0,0-1.042,1.114,1.061,1.061,0,0,0,1.042,1.114.789.789,0,0,0,.683-.323v.252H22.5Zm-1.761,0a.67.67,0,0,1,.683-.719.663.663,0,0,1,.647.719.644.644,0,0,1-.647.719A.691.691,0,0,1,20.736,31.913ZM37.3,30.8a.61.61,0,0,0-.575.323V30.87H36.3v2.156h.431V31.8c0-.359.18-.575.467-.575a.432.432,0,0,1,.288.072l.144-.4A.434.434,0,0,0,37.3,30.8Zm3.45,1.869h.072c.036,0,.036.036.072.036.036.036.036.036.036.072v.144c0,.036-.036.036-.036.072-.036.036-.036.036-.072.036h-.144c-.036,0-.036-.036-.072-.036-.036-.036-.036-.036-.036-.072v-.144c0-.036.036-.036.036-.072.036-.036.036-.036.072-.036Zm0,.4h.072a.035.035,0,0,0,.036-.036l.036-.036v-.144a.035.035,0,0,0-.036-.036l-.036-.036h-.144a.035.035,0,0,0-.036.036l-.036.036v.144a.035.035,0,0,0,.036.036l.036.036Zm0-.288h.072l.036.036v.036a.035.035,0,0,0-.036.036l.072.072h-.036l-.072-.072h-.036v.072h-.036v-.216h.036Zm-.036.036h0l.072.036v-.072l-.072.036Zm-5.067-.9V30.834h-.431v.252a.89.89,0,0,0-.683-.323,1.04,1.04,0,0,0-1.042,1.114,1.061,1.061,0,0,0,1.042,1.114.789.789,0,0,0,.683-.323v.252h.431Zm-1.725,0a.67.67,0,0,1,.683-.719.663.663,0,0,1,.647.719.644.644,0,0,1-.647.719A.67.67,0,0,1,33.925,31.913Zm6.037,0V29.972h-.431v1.114a.89.89,0,0,0-.683-.323,1.04,1.04,0,0,0-1.042,1.114,1.061,1.061,0,0,0,1.042,1.114.789.789,0,0,0,.683-.323v.252h.431Zm-1.725,0a.67.67,0,0,1,.683-.719.663.663,0,0,1,.647.719.644.644,0,0,1-.647.719A.67.67,0,0,1,38.237,31.913Z" transform="translate(-14.698 -28.175)"/>
    </clipPath>
    <clipPath id="clip-path-4">
      <rect id="Rectangle_294" data-name="Rectangle 294" width="7.763" height="12.686" transform="translate(1.797 1.797)"/>
    </clipPath>
    <clipPath id="clip-path-5">
      <path id="Path_431" data-name="Path 431" d="M25.12,20.88a8.023,8.023,0,0,1,3.091-6.325,8.054,8.054,0,1,0-5,14.375,8.165,8.165,0,0,0,5-1.725A7.97,7.97,0,0,1,25.12,20.88" transform="translate(-13.333 -11.033)"/>
    </clipPath>
    <clipPath id="clip-path-6">
      <path id="Path_432" data-name="Path 432" d="M40.466,25.875v-.252h.108v-.036h-.252v.036h.108l.036.252Zm.5,0v-.323H40.9l-.108.216-.108-.216h-.072v.323h.072v-.252l.072.216h.072l.072-.216v.252Z" transform="translate(-38.489 -23.755)"/>
    </clipPath>
    <clipPath id="clip-path-7">
      <path id="Path_433" data-name="Path 433" d="M41.22,20.88a8.037,8.037,0,0,1-8.05,8.05,8.165,8.165,0,0,1-5-1.725,8.017,8.017,0,0,0,0-12.65A8.062,8.062,0,0,1,41.22,20.88" transform="translate(-26.378 -11.033)"/>
    </clipPath>
  </defs>
  <g id="Mask_Group_6" data-name="Mask Group 6" transform="translate(-1145 -591)" clip-path="url(#clip-path)">
    <g id="_1933703_charge_credit_card_debit_mastercard_payment_icon" data-name="1933703_charge_credit card_debit_mastercard_payment_icon" transform="translate(1139.969 584)">
      <g id="Group_352" data-name="Group 352">
        <g id="Group_349" data-name="Group 349">
          <path id="SVGID_1_" d="M5.031,10.781A2.163,2.163,0,0,1,7.188,8.625H48.875a2.163,2.163,0,0,1,2.156,2.156V35.219a2.163,2.163,0,0,1-2.156,2.156H7.188a2.163,2.163,0,0,1-2.156-2.156Z"/>
        </g>
        <g id="Group_351" data-name="Group 351">
          <g id="Group_350" data-name="Group 350" clip-path="url(#clip-path-2)">
            <path id="Path_428" data-name="Path 428" d="M5.031,10.781A2.163,2.163,0,0,1,7.188,8.625H48.875a2.163,2.163,0,0,1,2.156,2.156V35.219a2.163,2.163,0,0,1-2.156,2.156H7.188a2.163,2.163,0,0,1-2.156-2.156Z" stroke="#000" stroke-width="0.719"/>
          </g>
        </g>
      </g>
      <g id="Group_355" data-name="Group 355">
        <g id="Group_354" data-name="Group 354">
          <g id="Group_353" data-name="Group 353" transform="translate(14.698 28.175)" clip-path="url(#clip-path-3)">
            <rect id="Rectangle_292" data-name="Rectangle 292" width="28.067" height="6.72" fill="#fff"/>
          </g>
        </g>
      </g>
      <g id="Group_358" data-name="Group 358">
        <g id="Group_357" data-name="Group 357">
          <g id="Group_356" data-name="Group 356" transform="translate(22.497 12.758)" clip-path="url(#clip-path-4)">
            <rect id="Rectangle_293" data-name="Rectangle 293" width="11.356" height="16.28" fill="#ff5f00"/>
          </g>
        </g>
      </g>
      <g id="Group_361" data-name="Group 361">
        <g id="Group_360" data-name="Group 360">
          <g id="Group_359" data-name="Group 359" transform="translate(13.333 11.033)" clip-path="url(#clip-path-5)">
            <rect id="Rectangle_295" data-name="Rectangle 295" width="16.639" height="19.73" fill="#eb001b"/>
          </g>
        </g>
      </g>
      <g id="Group_364" data-name="Group 364">
        <g id="Group_363" data-name="Group 363">
          <g id="Group_362" data-name="Group 362" transform="translate(38.489 23.755)" clip-path="url(#clip-path-6)">
            <rect id="Rectangle_296" data-name="Rectangle 296" width="4.277" height="3.917" fill="#f79e1b"/>
          </g>
        </g>
      </g>
      <g id="Group_367" data-name="Group 367">
        <g id="Group_366" data-name="Group 366">
          <g id="Group_365" data-name="Group 365" transform="translate(26.378 11.033)" clip-path="url(#clip-path-7)">
            <rect id="Rectangle_297" data-name="Rectangle 297" width="16.639" height="19.73" fill="#f79e1b"/>
          </g>
        </g>
      </g>
    </g>
  </g>
</svg>
