<svg xmlns="http://www.w3.org/2000/svg" width="76.18" height="76.18" viewBox="0 0 76.18 76.18">
  <g id="MindfulMaterials-dark" transform="translate(-3.16 -3.16)">
    <path id="Path_449" data-name="Path 449" d="M21.1,16.505H19.69v26.2H21.1Z" transform="translate(20.858 16.84)" fill="#282829"/>
    <path id="Path_450" data-name="Path 450" d="M21.1,39.436H19.69A25.006,25.006,0,0,1,30.2,19.09l.814,1.154A23.586,23.586,0,0,0,21.1,39.436Z" transform="translate(20.858 20.102)" fill="#282829"/>
    <path id="Path_451" data-name="Path 451" d="M23.035,28.816l-.452-.373c-.2-.17-5.033-4.23-4.987-10.3-.045-6.062,4.784-10.122,4.987-10.292l.452-.373.452.373c.2.17,5.033,4.23,4.987,10.3.045,6.062-4.784,10.122-4.987,10.292Zm0-19.463c-1.142,1.12-4.06,4.422-4.026,8.787-.034,4.365,2.884,7.668,4.026,8.8,1.142-1.131,4.06-4.433,4.026-8.787C27.1,13.774,24.178,10.472,23.035,9.352Z" transform="translate(18.215 5.445)" fill="#282829"/>
    <path id="Path_452" data-name="Path 452" d="M25.775,28.174c-.532,0-.871-.034-.927-.034l-.577-.057-.057-.577c-.023-.26-.565-6.548,3.755-10.812,4.252-4.32,10.54-3.777,10.8-3.743l.577.057.057.577c.023.26.565,6.548-3.755,10.812-3.336,3.393-7.928,3.789-9.884,3.789Zm-.17-1.425c1.617.011,6.005-.26,9.059-3.359,3.11-3.065,3.382-7.464,3.37-9.07-1.606,0-6.005.26-9.059,3.359C25.865,20.744,25.594,25.143,25.6,26.749Z" transform="translate(26.525 12.307)" fill="#282829"/>
    <path id="Path_453" data-name="Path 453" d="M26.631,39.436H25.217A23.616,23.616,0,0,0,15.31,20.244l.814-1.154A25.006,25.006,0,0,1,26.631,39.436Z" transform="translate(15.332 20.102)" fill="#282829"/>
    <path id="Path_454" data-name="Path 454" d="M22.735,28.186c-1.945,0-6.537-.4-9.884-3.789-4.32-4.252-3.777-10.54-3.744-10.8l.057-.577.577-.057c.271-.023,6.548-.565,10.812,3.755,4.32,4.252,3.777,10.54,3.743,10.812l-.057.577-.577.057c-.057,0-.4.034-.927.034ZM10.475,14.332c-.011,1.606.26,6.005,3.359,9.059,3.065,3.11,7.464,3.382,9.07,3.37.011-1.606-.26-6.005-3.359-9.059C16.481,14.592,12.07,14.332,10.475,14.332Z" transform="translate(7.455 12.329)" fill="#282829"/>
    <path id="Path_455" data-name="Path 455" d="M29.537,32.526a3.557,3.557,0,0,1-3.551-3.551H27.4a2.137,2.137,0,1,0,4.275,0h1.414A3.557,3.557,0,0,1,29.537,32.526Z" transform="translate(28.803 32.576)" fill="#282829"/>
    <path id="Path_456" data-name="Path 456" d="M19.461,32.526a3.557,3.557,0,0,1-3.551-3.551h1.414a2.137,2.137,0,1,0,4.275,0h1.414A3.557,3.557,0,0,1,19.461,32.526Z" transform="translate(16.089 32.576)" fill="#282829"/>
    <path id="Path_457" data-name="Path 457" d="M30.572,30.951H29.159a2.137,2.137,0,0,0-4.275,0H23.47a3.551,3.551,0,0,1,7.1,0Z" transform="translate(25.629 30.588)" fill="#282829"/>
    <path id="Path_458" data-name="Path 458" d="M24.5,32.526a3.557,3.557,0,0,1-3.551-3.551h1.414a2.137,2.137,0,1,0,4.275,0h1.414A3.557,3.557,0,0,1,24.5,32.526Z" transform="translate(22.449 32.576)" fill="#282829"/>
    <path id="Path_459" data-name="Path 459" d="M25.532,30.951H24.119a2.137,2.137,0,0,0-4.275,0H18.43a3.551,3.551,0,0,1,7.1,0Z" transform="translate(19.269 30.588)" fill="#282829"/>
    <path id="Path_460" data-name="Path 460" d="M14.426,32.526a3.557,3.557,0,0,1-3.551-3.551h1.414a2.137,2.137,0,1,0,4.275,0h1.414A3.557,3.557,0,0,1,14.426,32.526Z" transform="translate(9.735 32.576)" fill="#282829"/>
    <path id="Path_461" data-name="Path 461" d="M20.5,30.951H19.084a2.137,2.137,0,0,0-4.275,0H13.395a3.551,3.551,0,0,1,7.1,0Z" transform="translate(12.915 30.588)" fill="#282829"/>
    <path id="Path_462" data-name="Path 462" d="M41.25,79.34A38.09,38.09,0,1,1,79.34,41.25,38.135,38.135,0,0,1,41.25,79.34Zm0-74.766A36.676,36.676,0,1,0,77.927,41.25,36.721,36.721,0,0,0,41.25,4.574Z" transform="translate(0 0)" fill="#282829"/>
  </g>
</svg>
