<svg xmlns="http://www.w3.org/2000/svg" width="23.754" height="30.685" viewBox="0 0 23.754 30.685">
  <path id="_104469_pinterest_icon" data-name="104469_pinterest_icon" d="M22.534,4.622c-8.374,0-12.6,6-12.6,11.011,0,3.031,1.148,5.728,3.609,6.732a.606.606,0,0,0,.883-.441c.081-.308.274-1.089.36-1.415a.856.856,0,0,0-.254-.982,5.08,5.08,0,0,1-1.164-3.456A8.348,8.348,0,0,1,22.049,7.63c4.733,0,7.334,2.892,7.334,6.754,0,5.083-2.249,9.372-5.587,9.372a2.728,2.728,0,0,1-2.782-3.395c.529-2.233,1.556-4.642,1.556-6.255a2.36,2.36,0,0,0-2.377-2.645c-1.885,0-3.4,1.95-3.4,4.562a6.782,6.782,0,0,0,.562,2.789s-1.929,8.173-2.267,9.6a19.771,19.771,0,0,0-.052,6.7.235.235,0,0,0,.419.1,18.816,18.816,0,0,0,3.182-5.769c.216-.783,1.24-4.844,1.24-4.844a5.051,5.051,0,0,0,4.306,2.2c5.665,0,9.509-5.165,9.509-12.078C33.691,9.491,29.263,4.622,22.534,4.622Z" transform="translate(-9.937 -4.622)"/>
</svg>
