<svg xmlns="http://www.w3.org/2000/svg" width="22" height="22" viewBox="0 0 22 22">
  <g id="_172526_price_tag_icon" data-name="172526_price_tag_icon" transform="translate(-0.252 -0.252)">
    <rect id="Rectangle_408" data-name="Rectangle 408" width="22" height="22" transform="translate(0.252 0.252)" fill="none"/>
    <circle id="Ellipse_22" data-name="Ellipse 22" cx="1.375" cy="1.375" r="1.375" transform="translate(14.002 5.752)" fill="none" stroke="#000" stroke-linecap="round" stroke-width="1.5"/>
    <path id="Path_490" data-name="Path 490" d="M22.665,4.117A1.117,1.117,0,0,0,21.547,3H14.9c-.594,0-1.163-.031-1.493.3L3.247,13.457a.845.845,0,0,0,0,1.2l7.765,7.765a.845.845,0,0,0,1.2,0L22.365,12.259c.33-.329.3-.885.3-1.493C22.664,10.766,22.665,4.187,22.665,4.117Z" transform="translate(-1.58 -1.58)" fill="none" stroke="#000" stroke-linecap="round" stroke-width="1.5"/>
  </g>
</svg>
