<svg xmlns="http://www.w3.org/2000/svg" xmlns:xlink="http://www.w3.org/1999/xlink" width="46" height="32" viewBox="0 0 46 32">
  <defs>
    <clipPath id="clip-path">
      <rect id="Rectangle_284" data-name="Rectangle 284" width="46" height="32" transform="translate(1029 591)" fill="#fff" stroke="#707070" stroke-width="1"/>
    </clipPath>
  </defs>
  <g id="Mask_Group_4" data-name="Mask Group 4" transform="translate(-1029 -591)" clip-path="url(#clip-path)">
    <g id="round-rect" transform="translate(1029 592.618)">
      <g id="rupay">
        <path id="Rectangle-2" d="M42.55,0H2.3A2.474,2.474,0,0,0,0,2.3c0,6.917,0,20.71,0,23.011s1.15,3.452,3.45,3.452h39.1q3.45,0,3.45-3.452V3.452Q46,0,42.55,0Z" fill="#f4f4f4" fill-rule="evenodd"/>
        <g id="RuPay-2" data-name="RuPay" transform="translate(7.283 9.775)">
          <path id="path4510-9" d="M.092,6.666a26.428,26.428,0,0,1,.69-2.657c.4-1.445.784-2.8.844-3l.11-.377L3.323.656C5.179.69,5.465.715,5.763.866c.529.268.675.68.493,1.393A2.345,2.345,0,0,1,5.23,3.688a.643.643,0,0,0-.211.21c-.008.042.06.136.174.24a1.406,1.406,0,0,1,.244.279,1.872,1.872,0,0,1-.047,1.04,7.722,7.722,0,0,0-.126.868L5.24,6.7H4.472a2.748,2.748,0,0,1-.817-.048c-.075-.075-.058-.266.072-.814.145-.61.154-.849.037-1-.155-.2-.3-.239-.851-.258-.448-.015-.523-.008-.591.053-.106.1-.192.343-.442,1.273L1.667,6.7H.9a6.2,6.2,0,0,1-.81-.03h0Zm4.039-3.4c.365-.108.519-.346.519-.8a.461.461,0,0,0-.07-.291c-.111-.134-.444-.179-1.07-.146l-.544.029-.079.267a4.024,4.024,0,0,0-.195.9c.009.061.051.093.153.113a4.965,4.965,0,0,0,1.286-.072Z" fill="#265797" fill-rule="evenodd" opacity="0.938"/>
          <path id="path4512-4" d="M6.7,6.783a.864.864,0,0,1-.514-.437c-.153-.357-.012-1.149.545-3.078.133-.462.243-.844.243-.85a.38.38,0,0,1,.063-.073c.051-.051.169-.063.639-.063a3.954,3.954,0,0,1,.676.038l.1.038-.1.353c-.244.866-.5,1.917-.541,2.246-.04.3-.038.378.009.477.108.225.5.272.832.1.391-.2.464-.373,1.092-2.562A1.515,1.515,0,0,1,9.988,2.4l.111-.118h.627c.485,0,.632.012.648.053S10.592,5.344,10.256,6.5l-.053.181-.67.02a4.518,4.518,0,0,1-.67,0,1.59,1.59,0,0,1,.061-.2c.136-.384-.033-.408-.527-.075a1.8,1.8,0,0,1-1.115.425A1.331,1.331,0,0,1,6.7,6.783Z" fill="#265797" fill-rule="evenodd" opacity="0.938"/>
          <path id="path4514-8" d="M11.161,6.664a28.334,28.334,0,0,1,.782-3.018L12.775.658l1.4.012c1.752.015,2.11.046,2.448.212a1.032,1.032,0,0,1,.535.495,1.788,1.788,0,0,1-.011,1.481,2.6,2.6,0,0,1-1.769,1.812,7.149,7.149,0,0,1-.923.1c-1.239.074-1.165.06-1.231.23-.032.081-.156.5-.275.92l-.217.772h-.763a6.011,6.011,0,0,1-.811-.031Zm3.613-3.216A.853.853,0,0,0,15.533,3a.865.865,0,0,0,.092-.742c-.127-.194-.3-.236-.957-.233a3.126,3.126,0,0,0-.63.039,8.778,8.778,0,0,0-.321,1.268.234.234,0,0,0,.027.125,4.416,4.416,0,0,0,1.03-.011Z" fill="#265797" fill-rule="evenodd" opacity="0.938"/>
          <path id="path4516-8" d="M17.067,6.8c-.472-.2-.595-.525-.441-1.178.215-.913.689-1.218,2.317-1.492.983-.165,1.228-.286,1.3-.639.052-.261-.172-.4-.635-.4a.805.805,0,0,0-.648.252l-.2.169-.52.013c-.6.015-.789-.009-.789-.1a1.609,1.609,0,0,1,.458-.643A2.132,2.132,0,0,1,18.8,2.3a4.741,4.741,0,0,1,2.368.042,1.2,1.2,0,0,1,.523.477c.091.173.058.353-.369,2.047-.21.832-.381,1.583-.381,1.67V6.7h-.5c-.273,0-.579.011-.681.025l-.185.025-.081-.19c-.1-.223-.107-.223-.612,0a2.657,2.657,0,0,1-1.174.321,1.112,1.112,0,0,1-.642-.082Zm2.156-.937a1.286,1.286,0,0,0,.591-.947V4.759l-.255.024a3.624,3.624,0,0,0-1.1.354.584.584,0,0,0-.292.5c0,.191.029.243.161.3a1.778,1.778,0,0,0,.891-.07Z" fill="#265797" fill-rule="evenodd" opacity="0.938"/>
          <path id="path4518-2" d="M21.433,8.6c-.161-.036-.167-.1-.055-.536.15-.59.14-.578.51-.635.4-.062.577-.15.666-.328a12.187,12.187,0,0,0-.028-3.049,12.453,12.453,0,0,1-.054-1.715,2.142,2.142,0,0,1,.756-.05h.715l.012,1.342a8.51,8.51,0,0,0,.057,1.387c.073.073.341-.381,1.442-2.438l.156-.291h.631a3.674,3.674,0,0,1,.65.031c.02.033-.936,1.737-1.9,3.38-1.364,2.334-1.62,2.656-2.26,2.834a6.039,6.039,0,0,1-1.3.069Z" fill="#265797" fill-rule="evenodd" opacity="0.938"/>
          <path id="path6141-55" d="M27.346,8.061l1.876-6.871,1.785,3.551Z" fill="#479951" fill-rule="evenodd"/>
          <path id="path6141-5-1" d="M26.186,8.086l1.876-6.871,1.785,3.551Z" fill="#d97b16" fill-rule="evenodd"/>
          <path id="tm" d="M31.354,1.062V.594h-.178V.512h.449V.594h-.179v.468Zm.333,0V.512h.135l.139.439.134-.439h.132v.55h-.084V.6L32,1.062h-.083L31.771.594v.468Z" fill-rule="evenodd"/>
          <path id="circle" d="M32.5.777A.763.763,0,1,1,31.74.014.763.763,0,0,1,32.5.777Z" fill="none" stroke="#000" stroke-width="0.048" fill-rule="evenodd" opacity="0.938"/>
        </g>
      </g>
    </g>
  </g>
</svg>
